<svg xmlns="http://www.w3.org/2000/svg" xmlns:xlink="http://www.w3.org/1999/xlink" version="1.1" id="wechatQr" x="0px" y="0px" viewBox="0 0 468 468" style="enable-background:new 0 0 468 468" xml:space="preserve"><desc/><g id="wechatQrPath"><path d="M156,24h-12v12h-24V24h-12V12h48V24L156,24z M444,12h12v84h-84V12H444L444,12z M444,36V24h-60v60h60V36L444,36z M252,24h-12  v12h12V24L252,24z M228,36V24h-12V12h-12v36h36V36H228L228,36z M300,48V36h36v12h-12v12h12v24h12v24h12V72h-12V60h12V24h-12V12h-36  v12h-24v12h-24v12h12v12h12V48H300L300,48z M408,36h-12v36h36V36H408L408,36z M108,48v12h12V48H108L108,48z M180,60V48h12V36h-12V24  h-24v12h-12v12h12v12h-12v12h24V60H180L180,60z M60,72h12V36H36v36H60L60,72z M216,60v12h12V60H216L216,60z M264,72V60h-12V48h-12  v24H264L264,72z M132,72V60h-12v24h12V72L132,72z M276,84V72h-12v12H276L276,84z M300,72h12v12h12V60h-36v24h12V72L300,72z M36,96  H12V12h84v84H36L36,96z M24,72v12h60V24H24V72L24,72z M120,84h-12v12h12V84L120,84z M144,96V84h-12v12H144L144,96z M216,96V84h-12  v12H216L216,96z M252,96h12V84h-12V96L252,96z M288,96V84h-12v12H288L288,96z M324,96h12V84h-12V96L324,96z M228,108v12h12V72h-12  v24h-12v12H228L228,108z M36,120h12v-12H36V120L36,120z M84,120h12v-12H60v24h12v-12H84L84,120z M108,108v12h12v-12H108L108,108z   M204,108v12h12v-12H204L204,108z M336,108v12h12v-12H336L336,108z M372,120v-12h-12v12H372L372,120z M444,120h-12v12h12v12h-12v12  h12v12h-24v-24h-12v-12h-36v12h12v12h-12v36h36v-12h-24v-12h12v-12h12v24h12v12h12v12h12v-12h12v-84h-12V120L444,120z M348,132h12  v-12h-12V132L348,132z M420,120v-12h-12v24h12V120L420,120z M48,132H36v12h12V132L48,132z M180,144v-12h-24v12H180L180,144z   M192,144v12h24v12h24v-12h-12v-36h-12v24h-12v-24h-12v-12h12V96h-12V84h12V72h-12V60h-12v12h-12v12h12v12h-12V84h-12v36h24v12h12  V144L192,144z M60,156v-12H48v12H60L60,156z M156,144h-12v12h12V144L156,144z M348,144v12h12v24h-24v-24h-12v12h-12v12h12v12h12v12  h-12v48h-24v12h-36v-12h-24v-24h-12v36h-24v-12h-12v12h12v24h12v-12h12v-12h12v12h12v12h12v-12h24v12h12v12h12v-12h12v36h-12v12h84  v12h24v12h-12v36h12v12h-24v12h12v12h12v12h-12v12h-12v-24h-12v-24h-12v12h-12v-12h-12v-12h-12v12h-12v12h-12v-12h-12v12h-12v-36h12  v12h12v-12h24v-12h12v-12h-12v-12h-12v12h-12v-12h-12v-12h-24v-12h-12v-12h12v-12h-48v12h24v36h12v12h24v-12h12v12h12v24h-12v-12  h-48v-12h-12v-36h-12v12h-12v-12h-12v12h-12v-48h-24v12h-12v-24h12v-12h12v-12h-24v-60h-12v24h-36v12h36v24h-24v12h12v12h-12v36h-12  v-12H96v-12h12v-12H96v-12h12v-24H84v-12h12v-12H84v12H72v24h24v12H84v12h12v12H72v12H24v-12H12v-12h24v12h12v-12h24v-12H24v-12h12  v-12H24v12H12v-24h12v-12h12v-12h24v-12h12v-12H60v12H48v-12H24v24H12v-72h12v12h12v12h12v12h12v-12h12v12h12v12h12v-12H84v-12h12  v-12H72v-12h48v-12h24v12h-12v24h-12v-12h-12v12h12v12h-12v24H84v12h36v-36h12v-12h12v12h12v12h12v24h12v-36h36v12h12v12h-36v12h12  v12h24v-24h12v-12h12v12h12v-12h12v-48h-12v36h-12v-24h-12v-24h12v-12h12v12h12v-12h12V96h12V84h12v12h12v48H348L348,144z M60,240  v-24H48v24H60L60,240z M396,372v-12h-36v36h36V372L396,372z M216,300h-12v12h12V300L216,300z M216,240v-12h-24v-12h-12v12h-12v12  H216L216,240z M288,132v12h12v-12h12v-24h-12v24H288L288,132z M264,204h-12v12h12V204L264,204z M312,240v-12h-24v-12h-12v12h-12v12  h12v12h12v-12H312L312,240z M300,192v-12h-12v12H300L300,192z M288,168h12v-12h-12V168L288,168z M360,144v12h12v-12H360L360,144z   M168,156h-12v12h24v-12H168L168,156z M432,216h-12v-12h-12v36h36v12h12v-36H432L432,216z M384,240h-24v-24h12v12h12v-12h12v-12h-48  v48h-12v12h24v24h12v-24h24v-12h-12V240L384,240z M396,252h12v-12h-12V252L396,252z M144,264h12v-12h-12V264L144,264z M432,264h-12  v12h12v24h24v-36H432L432,264z M144,288v-12h-12v12H144L144,288z M300,288h12v-24h-12V288L300,288z M396,276v12h24v-12H396L396,276z   M348,300h12v-12h-12V300L348,300z M12,312h12v-12H12V312L12,312z M84,312h12v-12H84V312L84,312z M336,312h12v-12h-12V312L336,312z   M372,312h-12v12h24v-12h24v-12h-24v-12h-12V312L372,312z M444,324h-12v12h12v12h12v-36h-12V324L444,324z M12,324v12h12v-12H12  L12,324z M84,336h12v-12H60v-12H48v12H36v12H24v12h12v12h12v-12h24v-12H84L84,336z M120,348v-12H96v12H72v12h36v-12H120L120,348z   M180,348h12v-12h-12V348L180,348z M216,348v-12h-12v12H216L216,348z M12,360h12v-12H12V360L12,360z M432,360h12v-12h-12V360  L432,360z M216,360h12v12h-48v24h12v12h-12v36h-12v12h-48v-24h24v-24h12v12h12v-12h-12v-12h-24v12h-24v-24h12v-12h-12v-12h24v-48h12  v-12h12v12h12v12h12v12h-12v12h12v12h12v-12h12v12H216L216,360z M144,336v12h12v-12H144L144,336z M168,384v-12h-36v12H168L168,384z   M72,372h24v84H12v-84H72L72,372z M84,396v-12H24v60h60V396L84,396z M372,384h12v-12h-12V384L372,384z M432,372h-12v12h36v-24h-12  v12H432L432,372z M276,384h-12v12h12V384L276,384z M48,396H36v36h36v-36H48L48,396z M204,396v12h12v-12H204L204,396z M216,420h12  v-12h-12V420L216,420z M264,408v-12h-12v-24h-24v36h24v12h24v-12H264L264,408z M432,420h12v12h12v-24h-36v12H432L432,420z M108,420  v12h12v-12H108L108,420z M276,420v12h12v-12H276L276,420z M336,420v12h-24v12h-12v-12h-12v12h-24v12h60v-12h24v12h36v-12h-12v-12  h-12v-12H336L336,420z M216,432h-12v12h12V432L216,432z M240,432h-12v12h12V432L240,432z M432,444v12h24v-12h-12v-12h-12V444  L432,444z M192,456h12v-12h-24v12H192L192,456z M228,456v-12h-12v12H228L228,456z"/></g></svg>